<mxfile host="65bd71144e">
    <diagram id="pyFOITWGm1L5QSNy7el4" name="Page-1">
        <mxGraphModel dx="1087" dy="670" grid="0" gridSize="10" guides="1" tooltips="1" connect="1" arrows="1" fold="1" page="0" pageScale="1" pageWidth="850" pageHeight="1100" background="#ffffff" math="0" shadow="0">
            <root>
                <mxCell id="0"/>
                <mxCell id="1" parent="0"/>
                <mxCell id="22" value="実行計画" style="rounded=1;whiteSpace=wrap;html=1;fillColor=none;fontColor=#1A1A1A;strokeColor=#006EAF;verticalAlign=top;fontStyle=1" parent="1" vertex="1">
                    <mxGeometry x="326" y="188.55" width="330" height="139.45" as="geometry"/>
                </mxCell>
                <mxCell id="29" value="" style="edgeStyle=none;html=1;fontColor=#1A1A1A;" parent="1" source="27" target="22" edge="1">
                    <mxGeometry relative="1" as="geometry"/>
                </mxCell>
                <mxCell id="27" value="プラグイン" style="rounded=1;whiteSpace=wrap;html=1;fillColor=none;fontColor=#1A1A1A;strokeColor=#006EAF;verticalAlign=top;" parent="1" vertex="1">
                    <mxGeometry x="44" y="134" width="212" height="289" as="geometry"/>
                </mxCell>
                <mxCell id="28" value="SummarizePlugin" style="rounded=0;whiteSpace=wrap;html=1;fontColor=#1A1A1A;fillColor=none;strokeColor=#1A1A1A;verticalAlign=top;" parent="1" vertex="1">
                    <mxGeometry x="70" y="164" width="160" height="92" as="geometry"/>
                </mxCell>
                <mxCell id="30" value="WriterPlugin" style="rounded=0;whiteSpace=wrap;html=1;fontColor=#1A1A1A;fillColor=none;strokeColor=#1A1A1A;verticalAlign=top;" parent="1" vertex="1">
                    <mxGeometry x="70" y="267" width="160" height="87" as="geometry"/>
                </mxCell>
                <mxCell id="31" value="TextPlugin" style="rounded=0;whiteSpace=wrap;html=1;fontColor=#1A1A1A;fillColor=none;strokeColor=#1A1A1A;verticalAlign=top;" parent="1" vertex="1">
                    <mxGeometry x="70" y="361" width="160" height="47" as="geometry"/>
                </mxCell>
                <mxCell id="32" value="MakeTitle" style="rounded=0;whiteSpace=wrap;html=1;fontColor=#1A1A1A;fillColor=#E6E6E6;strokeColor=#1A1A1A;verticalAlign=top;" parent="1" vertex="1">
                    <mxGeometry x="104" y="189" width="98" height="26" as="geometry"/>
                </mxCell>
                <mxCell id="33" value="Summarise" style="rounded=0;whiteSpace=wrap;html=1;fontColor=#1A1A1A;fillColor=#E6E6E6;strokeColor=#1A1A1A;verticalAlign=top;" parent="1" vertex="1">
                    <mxGeometry x="104" y="219" width="98" height="26" as="geometry"/>
                </mxCell>
                <mxCell id="35" value="Translate" style="rounded=0;whiteSpace=wrap;html=1;fontColor=#1A1A1A;fillColor=#E6E6E6;strokeColor=#1A1A1A;verticalAlign=top;" parent="1" vertex="1">
                    <mxGeometry x="104" y="290" width="98" height="26" as="geometry"/>
                </mxCell>
                <mxCell id="36" value="EmailTo" style="rounded=0;whiteSpace=wrap;html=1;fontColor=#1A1A1A;fillColor=#E6E6E6;strokeColor=#1A1A1A;verticalAlign=top;" parent="1" vertex="1">
                    <mxGeometry x="104" y="320" width="98" height="26" as="geometry"/>
                </mxCell>
                <mxCell id="42" style="edgeStyle=none;html=1;fontSize=12;fontColor=#1A1A1A;exitX=1;exitY=0.5;exitDx=0;exitDy=0;exitPerimeter=0;strokeColor=#3333FF;strokeWidth=2;" parent="1" source="37" target="39" edge="1">
                    <mxGeometry relative="1" as="geometry"/>
                </mxCell>
                <mxCell id="37" value="&lt;font style=&quot;font-size: 12px;&quot;&gt;　　　目標：&lt;span style=&quot;font-family: Consolas, &amp;quot;Courier New&amp;quot;, monospace;&quot;&gt;以下の文章にタイトルをつけて。&lt;/span&gt;&lt;/font&gt;" style="shape=card;whiteSpace=wrap;html=1;labelBackgroundColor=none;strokeColor=#1A1A1A;fontColor=#1A1A1A;fillColor=#E6E6E6;" parent="1" vertex="1">
                    <mxGeometry x="365" y="111" width="258" height="47" as="geometry"/>
                </mxCell>
                <mxCell id="43" value="" style="group" parent="1" vertex="1" connectable="0">
                    <mxGeometry x="837" y="147.99999999999997" width="60" height="75.9" as="geometry"/>
                </mxCell>
                <mxCell id="39" value="" style="shape=image;verticalLabelPosition=bottom;labelBackgroundColor=default;verticalAlign=top;aspect=fixed;imageAspect=0;image=https://www.basicthinking.de/blog/wp-content/uploads/2023/01/azure-openai-service.jpg;clipPath=inset(9.76% 29.33% 12.13% 27%);" parent="43" vertex="1">
                    <mxGeometry x="3.3099999999999454" width="53.39" height="53.8" as="geometry"/>
                </mxCell>
                <mxCell id="40" value="OpenAI" style="text;html=1;strokeColor=none;fillColor=none;align=center;verticalAlign=middle;whiteSpace=wrap;rounded=0;labelBackgroundColor=none;fontSize=12;fontColor=#1A1A1A;" parent="43" vertex="1">
                    <mxGeometry y="45.900000000000006" width="60" height="30" as="geometry"/>
                </mxCell>
                <mxCell id="46" value="プラグインが一つだけ選択される" style="edgeStyle=none;html=1;fontSize=12;fontColor=#1A1A1A;exitX=0;exitY=0.75;exitDx=0;exitDy=0;strokeColor=#3333FF;strokeWidth=2;entryX=1;entryY=0;entryDx=0;entryDy=0;labelBackgroundColor=none;verticalAlign=top;" parent="1" source="39" target="22" edge="1">
                    <mxGeometry relative="1" as="geometry">
                        <mxPoint x="633" y="144.5" as="sourcePoint"/>
                        <mxPoint x="910.31" y="142.12830874492192" as="targetPoint"/>
                    </mxGeometry>
                </mxCell>
                <mxCell id="48" value="MakeTitle" style="rounded=0;whiteSpace=wrap;html=1;fontColor=#1A1A1A;fillColor=#E6E6E6;strokeColor=#1A1A1A;verticalAlign=top;fontSize=14;fontStyle=1" parent="1" vertex="1">
                    <mxGeometry x="442" y="232" width="98" height="29" as="geometry"/>
                </mxCell>
                <mxCell id="52" style="edgeStyle=none;html=1;fontSize=12;fontColor=#1A1A1A;exitX=1;exitY=0.5;exitDx=0;exitDy=0;strokeColor=#3333FF;strokeWidth=1;entryX=0;entryY=0.5;entryDx=0;entryDy=0;dashed=1;" parent="1" source="32" target="48" edge="1">
                    <mxGeometry relative="1" as="geometry">
                        <mxPoint x="407.30999999999995" y="220.8" as="sourcePoint"/>
                        <mxPoint x="288" y="260.99999999999994" as="targetPoint"/>
                    </mxGeometry>
                </mxCell>
                <mxCell id="54" value="Text" style="text;strokeColor=none;align=center;fillColor=none;html=1;verticalAlign=middle;whiteSpace=wrap;rounded=0;" parent="1" vertex="1">
                    <mxGeometry x="315" y="365" width="60" height="30" as="geometry"/>
                </mxCell>
            </root>
        </mxGraphModel>
    </diagram>
</mxfile>